<svg width="153" height="42" viewBox="0 0 153 42" fill="none" xmlns="http://www.w3.org/2000/svg">
<path d="M4.6184 7.14546C5.01898 7.31717 5.33054 7.56735 5.55309 7.89586C5.77563 8.22437 5.88691 8.61266 5.88691 9.06066C5.88691 9.73266 5.63469 10.2815 5.13025 10.7071C4.63323 11.1327 3.97302 11.3455 3.1496 11.3455C2.40036 11.3455 1.79578 11.1775 1.33585 10.8415C0.88334 10.5055 0.564361 10.0724 0.378906 9.54226L1.25796 9.03826C1.48793 9.91935 2.11847 10.3599 3.1496 10.3599C3.69113 10.3599 4.11025 10.2404 4.40698 10.0015C4.70371 9.75506 4.85207 9.43026 4.85207 9.02706C4.85207 8.62386 4.71112 8.29906 4.42923 8.05266C4.15476 7.80626 3.76902 7.68306 3.272 7.68306H2.35956V6.73106H3.01607C3.49084 6.73106 3.86916 6.61533 4.15105 6.38386C4.43294 6.14493 4.57389 5.83506 4.57389 5.45426C4.57389 5.08093 4.44036 4.77853 4.17331 4.54706C3.91367 4.30813 3.55018 4.18866 3.08283 4.18866C2.22233 4.18866 1.64742 4.57319 1.35811 5.34226L0.490179 4.83826C0.957524 3.7556 1.82175 3.21426 3.08283 3.21426C3.83207 3.21426 4.43665 3.42333 4.89658 3.84146C5.36392 4.25959 5.5976 4.78973 5.5976 5.43186C5.5976 6.17853 5.2712 6.74973 4.6184 7.14546ZM11.6225 5.59986H12.5906V11.1999H11.6225V10.2367C11.1403 10.9759 10.4393 11.3455 9.51947 11.3455C8.74057 11.3455 8.07662 11.0618 7.52769 10.4943C6.9787 9.91935 6.70424 9.22117 6.70424 8.39986C6.70424 7.57855 6.9787 6.88413 7.52769 6.31666C8.07662 5.74173 8.74057 5.45426 9.51947 5.45426C10.4393 5.45426 11.1403 5.82386 11.6225 6.56306V5.59986ZM9.64188 10.4047C10.2056 10.4047 10.6767 10.2143 11.055 9.83346C11.4334 9.44517 11.6225 8.96735 11.6225 8.39986C11.6225 7.83237 11.4334 7.35826 11.055 6.97746C10.6767 6.5892 10.2056 6.39506 9.64188 6.39506C9.08551 6.39506 8.61817 6.5892 8.23984 6.97746C7.86151 7.35826 7.67228 7.83237 7.67228 8.39986C7.67228 8.96735 7.86151 9.44517 8.23984 9.83346C8.61817 10.2143 9.08551 10.4047 9.64188 10.4047ZM18.842 10.2703H19.6098V12.7007H18.6529V11.1999H14.4802V12.7007H13.5232V10.2703H14.202C14.558 9.77746 14.7361 9.08677 14.7361 8.19826V5.59986H18.842V10.2703ZM15.3036 10.2703H17.8851V6.50706H15.693V8.19826C15.693 9.03455 15.5632 9.72517 15.3036 10.2703ZM24.6924 5.59986H25.4713V11.1999H24.5144V7.26866L21.4321 11.1999H20.6532V5.59986H21.6102V9.53106L24.6924 5.59986ZM29.9493 8.33266C30.565 8.58655 30.8729 9.03077 30.8729 9.66546C30.8729 10.1359 30.6874 10.5354 30.3165 10.8639C29.9456 11.185 29.4189 11.3455 28.7364 11.3455C27.6237 11.3455 26.8782 10.8975 26.4998 10.0015L27.3121 9.51986C27.5272 10.1322 28.0057 10.4383 28.7475 10.4383C29.1184 10.4383 29.4041 10.3599 29.6043 10.2031C29.8121 10.0388 29.9159 9.82975 29.9159 9.57586C29.9159 9.35186 29.8306 9.16895 29.66 9.02706C29.4968 8.88517 29.2742 8.81426 28.9923 8.81426H28.1801V7.92946H28.7809C29.0628 7.92946 29.2817 7.86226 29.4374 7.72786C29.5932 7.58597 29.6711 7.39557 29.6711 7.15666C29.6711 6.91773 29.5784 6.7236 29.3929 6.57426C29.2149 6.42493 28.9664 6.35026 28.6474 6.35026C28.0243 6.35026 27.6014 6.61533 27.3789 7.14546L26.5889 6.68626C26.982 5.86493 27.6682 5.45426 28.6474 5.45426C29.2557 5.45426 29.7342 5.61106 30.0828 5.92466C30.4389 6.23826 30.6169 6.6228 30.6169 7.07826C30.6169 7.64575 30.3944 8.06386 29.9493 8.33266ZM36.5285 5.59986H37.4966V11.1999H36.5285V10.2367C36.0463 10.9759 35.3453 11.3455 34.4254 11.3455C33.6465 11.3455 32.9826 11.0618 32.4337 10.4943C31.8847 9.91935 31.6102 9.22117 31.6102 8.39986C31.6102 7.57855 31.8847 6.88413 32.4337 6.31666C32.9826 5.74173 33.6465 5.45426 34.4254 5.45426C35.3453 5.45426 36.0463 5.82386 36.5285 6.56306V5.59986ZM34.5478 10.4047C35.1116 10.4047 35.5827 10.2143 35.961 9.83346C36.3393 9.44517 36.5285 8.96735 36.5285 8.39986C36.5285 7.83237 36.3393 7.35826 35.961 6.97746C35.5827 6.5892 35.1116 6.39506 34.5478 6.39506C33.9915 6.39506 33.5241 6.5892 33.1458 6.97746C32.7675 7.35826 32.5783 7.83237 32.5783 8.39986C32.5783 8.96735 32.7675 9.44517 33.1458 9.83346C33.5241 10.2143 33.9915 10.4047 34.5478 10.4047ZM39.8757 4.75986V3.90866H42.8801V4.75986H39.8757ZM43.0025 5.59986H43.7814V11.1999H42.8244V7.26866L39.7422 11.1999H38.9632V5.59986H39.9202V9.53106L43.0025 5.59986ZM49.105 5.59986H50.073V11.1999H49.105V8.85906H46.223V11.1999H45.2549V5.59986H46.223V7.92946H49.105V5.59986ZM52.2254 8.84786C52.3219 9.34815 52.5481 9.73637 52.9042 10.0127C53.2677 10.289 53.7128 10.4271 54.2394 10.4271C54.9738 10.4271 55.5079 10.1546 55.8418 9.60946L56.6652 10.0799C56.1236 10.9236 55.3077 11.3455 54.2172 11.3455C53.3344 11.3455 52.6149 11.0692 52.0585 10.5167C51.5096 9.95666 51.2351 9.25106 51.2351 8.39986C51.2351 7.55615 51.5058 6.85426 52.0474 6.29426C52.5889 5.73426 53.2899 5.45426 54.1504 5.45426C54.9664 5.45426 55.6303 5.74546 56.1422 6.32786C56.6615 6.90279 56.9211 7.59717 56.9211 8.41106C56.9211 8.55295 56.91 8.69855 56.8877 8.84786H52.2254ZM54.1504 6.37266C53.6311 6.37266 53.2009 6.522 52.8596 6.82066C52.5184 7.11186 52.307 7.50386 52.2254 7.99666H55.9419C55.8603 7.46655 55.6526 7.06335 55.3188 6.78706C54.985 6.5108 54.5955 6.37266 54.1504 6.37266ZM61.8839 5.59986H62.852V11.1999H61.8839V8.85906H59.002V11.1999H58.0339V5.59986H59.002V7.92946H61.8839V5.59986ZM69.0213 10.4943C68.4501 11.0618 67.7565 11.3455 66.9405 11.3455C66.1245 11.3455 65.4309 11.0618 64.8597 10.4943C64.2959 9.92677 64.014 9.22866 64.014 8.39986C64.014 7.57106 64.2959 6.87293 64.8597 6.30546C65.4309 5.738 66.1245 5.45426 66.9405 5.45426C67.7565 5.45426 68.4501 5.738 69.0213 6.30546C69.5926 6.87293 69.8778 7.57106 69.8778 8.39986C69.8778 9.22866 69.5926 9.92677 69.0213 10.4943ZM66.9405 10.3935C67.4969 10.3935 67.9642 10.2031 68.3426 9.82226C68.7209 9.44146 68.91 8.96735 68.91 8.39986C68.91 7.83237 68.7209 7.35826 68.3426 6.97746C67.9642 6.59666 67.4969 6.40626 66.9405 6.40626C66.3916 6.40626 65.9279 6.59666 65.5496 6.97746C65.1713 7.35826 64.9821 7.83237 64.9821 8.39986C64.9821 8.96735 65.1713 9.44146 65.5496 9.82226C65.9279 10.2031 66.3916 10.3935 66.9405 10.3935ZM77.8407 5.59986H78.6196V11.1999H77.6627V7.26866L74.5804 11.1999H73.8008V5.59986H74.7585V9.53106L77.8407 5.59986ZM85.9456 5.45426C86.7245 5.45426 87.3886 5.74173 87.9373 6.31666C88.4867 6.88413 88.7607 7.57855 88.7607 8.39986C88.7607 9.22117 88.4867 9.91935 87.9373 10.4943C87.3886 11.0618 86.7245 11.3455 85.9456 11.3455C85.0262 11.3455 84.3251 10.9759 83.8425 10.2367V13.4399H82.8744V5.59986H83.8425V6.56306C84.3251 5.82386 85.0262 5.45426 85.9456 5.45426ZM85.8232 10.4047C86.3795 10.4047 86.8469 10.2143 87.2252 9.83346C87.6035 9.44517 87.7927 8.96735 87.7927 8.39986C87.7927 7.83237 87.6035 7.35826 87.2252 6.97746C86.8469 6.5892 86.3795 6.39506 85.8232 6.39506C85.2598 6.39506 84.7883 6.5892 84.41 6.97746C84.0317 7.35826 83.8425 7.83237 83.8425 8.39986C83.8425 8.96735 84.0317 9.44517 84.41 9.83346C84.7883 10.2143 85.2598 10.4047 85.8232 10.4047ZM94.5226 5.59986H95.4907V11.1999H94.5226V10.2367C94.0406 10.9759 93.3396 11.3455 92.4195 11.3455C91.6406 11.3455 90.9772 11.0618 90.4278 10.4943C89.879 9.91935 89.6043 9.22117 89.6043 8.39986C89.6043 7.57855 89.879 6.88413 90.4278 6.31666C90.9772 5.74173 91.6406 5.45426 92.4195 5.45426C93.3396 5.45426 94.0406 5.82386 94.5226 6.56306V5.59986ZM92.5419 10.4047C93.1059 10.4047 93.5768 10.2143 93.9551 9.83346C94.3334 9.44517 94.5226 8.96735 94.5226 8.39986C94.5226 7.83237 94.3334 7.35826 93.9551 6.97746C93.5768 6.5892 93.1059 6.39506 92.5419 6.39506C91.9856 6.39506 91.5182 6.5892 91.1399 6.97746C90.7616 7.35826 90.5724 7.83237 90.5724 8.39986C90.5724 8.96735 90.7616 9.44517 91.1399 9.83346C91.5182 10.2143 91.9856 10.4047 92.5419 10.4047ZM99.9617 8.33266C100.578 8.58655 100.885 9.03077 100.885 9.66546C100.885 10.1359 100.7 10.5354 100.329 10.8639C99.9583 11.185 99.4318 11.3455 98.7489 11.3455C97.6361 11.3455 96.8906 10.8975 96.5123 10.0015L97.3246 9.51986C97.5402 10.1322 98.0186 10.4383 98.76 10.4383C99.1314 10.4383 99.4165 10.3599 99.6168 10.2031C99.8247 10.0388 99.9284 9.82975 99.9284 9.57586C99.9284 9.35186 99.8435 9.16895 99.6724 9.02706C99.5097 8.88517 99.2871 8.81426 99.0048 8.81426H98.1925V7.92946H98.7934C99.0757 7.92946 99.2941 7.86226 99.4499 7.72786C99.6057 7.58597 99.6836 7.39557 99.6836 7.15666C99.6836 6.91773 99.5911 6.7236 99.4054 6.57426C99.2273 6.42493 98.9791 6.35026 98.6599 6.35026C98.0367 6.35026 97.6139 6.61533 97.3913 7.14546L96.6013 6.68626C96.9949 5.86493 97.6807 5.45426 98.6599 5.45426C99.2684 5.45426 99.7468 5.61106 100.095 5.92466C100.451 6.23826 100.629 6.6228 100.629 7.07826C100.629 7.64575 100.407 8.06386 99.9617 8.33266ZM105.006 5.45426C105.785 5.45426 106.448 5.74173 106.998 6.31666C107.546 6.88413 107.821 7.57855 107.821 8.39986C107.821 9.22117 107.546 9.91935 106.998 10.4943C106.448 11.0618 105.785 11.3455 105.006 11.3455C104.086 11.3455 103.385 10.9759 102.903 10.2367V13.4399H101.935V5.59986H102.903V6.56306C103.385 5.82386 104.086 5.45426 105.006 5.45426ZM104.883 10.4047C105.44 10.4047 105.907 10.2143 106.286 9.83346C106.664 9.44517 106.853 8.96735 106.853 8.39986C106.853 7.83237 106.664 7.35826 106.286 6.97746C105.907 6.5892 105.44 6.39506 104.883 6.39506C104.319 6.39506 103.849 6.5892 103.47 6.97746C103.092 7.35826 102.903 7.83237 102.903 8.39986C102.903 8.96735 103.092 9.44517 103.47 9.83346C103.849 10.2143 104.319 10.4047 104.883 10.4047ZM113.583 5.59986H114.551V11.1999H113.583V10.2367C113.1 10.9759 112.399 11.3455 111.48 11.3455C110.701 11.3455 110.037 11.0618 109.488 10.4943C108.939 9.91935 108.665 9.22117 108.665 8.39986C108.665 7.57855 108.939 6.88413 109.488 6.31666C110.037 5.74173 110.701 5.45426 111.48 5.45426C112.399 5.45426 113.1 5.82386 113.583 6.56306V5.59986ZM111.602 10.4047C112.166 10.4047 112.637 10.2143 113.015 9.83346C113.394 9.44517 113.583 8.96735 113.583 8.39986C113.583 7.83237 113.394 7.35826 113.015 6.97746C112.637 6.5892 112.166 6.39506 111.602 6.39506C111.046 6.39506 110.579 6.5892 110.2 6.97746C109.822 7.35826 109.633 7.83237 109.633 8.39986C109.633 8.96735 109.822 9.44517 110.2 9.83346C110.579 10.2143 111.046 10.4047 111.602 10.4047ZM118.544 11.3455C117.72 11.3455 117.041 11.073 116.507 10.5279C115.973 9.98277 115.706 9.28095 115.706 8.42226C115.706 7.46655 115.843 6.73106 116.118 6.21586C116.4 5.70066 116.97 5.23399 117.831 4.81586C117.987 4.74119 118.199 4.64413 118.466 4.52466C118.74 4.4052 118.94 4.31559 119.067 4.25586C119.192 4.18866 119.334 4.10279 119.489 3.99826C119.645 3.88626 119.76 3.76679 119.834 3.63986C119.916 3.50546 119.975 3.3524 120.012 3.18066L120.791 3.62866C120.769 3.74813 120.739 3.86013 120.702 3.96466C120.665 4.06173 120.609 4.15879 120.535 4.25586C120.469 4.34546 120.409 4.42386 120.357 4.49106C120.305 4.55826 120.216 4.63293 120.09 4.71506C119.971 4.78973 119.882 4.84573 119.823 4.88306C119.771 4.92039 119.663 4.9764 119.501 5.05106C119.345 5.12573 119.237 5.178 119.178 5.20786C119.126 5.23026 119.003 5.28253 118.811 5.36466C118.617 5.43933 118.499 5.48786 118.455 5.51026C117.95 5.7268 117.579 5.94706 117.342 6.17106C117.112 6.39506 116.945 6.67879 116.841 7.02226C117.078 6.72359 117.375 6.50333 117.731 6.36146C118.087 6.2196 118.443 6.14866 118.8 6.14866C119.496 6.14866 120.086 6.38759 120.569 6.86546C121.058 7.34335 121.303 7.95935 121.303 8.71346C121.303 9.47506 121.043 10.106 120.524 10.6063C120.005 11.0991 119.345 11.3455 118.544 11.3455ZM117.242 9.91186C117.59 10.2404 118.024 10.4047 118.544 10.4047C119.062 10.4047 119.489 10.2442 119.823 9.92306C120.164 9.60197 120.335 9.19877 120.335 8.71346C120.335 8.21317 120.172 7.80626 119.845 7.49266C119.526 7.17157 119.103 7.01106 118.577 7.01106C118.102 7.01106 117.671 7.16415 117.286 7.47026C116.908 7.76895 116.719 8.16466 116.719 8.65746C116.719 9.16517 116.893 9.58335 117.242 9.91186ZM127.027 10.4943C126.455 11.0618 125.762 11.3455 124.946 11.3455C124.129 11.3455 123.436 11.0618 122.865 10.4943C122.301 9.92677 122.019 9.22866 122.019 8.39986C122.019 7.57106 122.301 6.87293 122.865 6.30546C123.436 5.738 124.129 5.45426 124.946 5.45426C125.762 5.45426 126.455 5.738 127.027 6.30546C127.598 6.87293 127.884 7.57106 127.884 8.39986C127.884 9.22866 127.598 9.92677 127.027 10.4943ZM124.946 10.3935C125.502 10.3935 125.97 10.2031 126.348 9.82226C126.726 9.44146 126.915 8.96735 126.915 8.39986C126.915 7.83237 126.726 7.35826 126.348 6.97746C125.97 6.59666 125.502 6.40626 124.946 6.40626C124.397 6.40626 123.933 6.59666 123.555 6.97746C123.177 7.35826 122.988 7.83237 122.988 8.39986C122.988 8.96735 123.177 9.44146 123.555 9.82226C123.933 10.2031 124.397 10.3935 124.946 10.3935ZM132.946 5.59986V6.54066H131.055V11.1999H130.087V6.54066H128.184V5.59986H132.946ZM138.185 5.59986H139.153V11.1999H138.185V10.2367C137.702 10.9759 137.001 11.3455 136.082 11.3455C135.303 11.3455 134.638 11.0618 134.09 10.4943C133.54 9.91935 133.266 9.22117 133.266 8.39986C133.266 7.57855 133.54 6.88413 134.09 6.31666C134.638 5.74173 135.303 5.45426 136.082 5.45426C137.001 5.45426 137.702 5.82386 138.185 6.56306V5.59986ZM136.204 10.4047C136.767 10.4047 137.239 10.2143 137.617 9.83346C137.995 9.44517 138.185 8.96735 138.185 8.39986C138.185 7.83237 137.995 7.35826 137.617 6.97746C137.239 6.5892 136.767 6.39506 136.204 6.39506C135.648 6.39506 135.18 6.5892 134.802 6.97746C134.424 7.35826 134.234 7.83237 134.234 8.39986C134.234 8.96735 134.424 9.44517 134.802 9.83346C135.18 10.2143 135.648 10.4047 136.204 10.4047ZM144.469 5.59986H145.438V11.1999H144.469V8.85906H141.587V11.1999H140.619V5.59986H141.587V7.92946H144.469V5.59986ZM151.607 10.4943C151.035 11.0618 150.342 11.3455 149.526 11.3455C148.71 11.3455 148.016 11.0618 147.445 10.4943C146.881 9.92677 146.6 9.22866 146.6 8.39986C146.6 7.57106 146.881 6.87293 147.445 6.30546C148.016 5.738 148.71 5.45426 149.526 5.45426C150.342 5.45426 151.035 5.738 151.607 6.30546C152.178 6.87293 152.463 7.57106 152.463 8.39986C152.463 9.22866 152.178 9.92677 151.607 10.4943ZM149.526 10.3935C150.082 10.3935 150.55 10.2031 150.928 9.82226C151.306 9.44146 151.496 8.96735 151.496 8.39986C151.496 7.83237 151.306 7.35826 150.928 6.97746C150.55 6.59666 150.082 6.40626 149.526 6.40626C148.977 6.40626 148.514 6.59666 148.135 6.97746C147.757 7.35826 147.568 7.83237 147.568 8.39986C147.568 8.96735 147.757 9.44146 148.135 9.82226C148.514 10.2031 148.977 10.3935 149.526 10.3935Z" fill="#B18BB1"/>
<mask id="mask0_348_219" style="mask-type:luminance" maskUnits="userSpaceOnUse" x="0" y="20" width="126" height="22">
<path d="M125.182 20.2998H0V41.9998H125.182V20.2998Z" fill="white"/>
</mask>
<g mask="url(#mask0_348_219)">
<path d="M124.915 41.4272H119.797V39.436H122.566V22.6148H119.797V20.6235H124.915V41.4272Z" fill="#B18BB1"/>
<path d="M26.3691 41.4267H31.4874V39.4355H28.7179V22.6143H31.4874V20.623H26.3691V41.4267Z" fill="#B18BB1"/>
<path d="M33.1562 38.3745H36.2094L37.7463 34.5297H43.2463L44.7829 38.3745H47.8363L41.6084 23.4785H39.3841L33.1562 38.3745ZM38.7978 31.8525L40.4962 27.5044L42.1947 31.8525H38.7978ZM53.9833 30.7855V33.3823H60.2314C59.4226 35.2342 57.6836 36.0595 55.8638 36.0595C52.4263 36.0595 50.5661 33.4628 50.5661 30.9265C50.5661 28.5914 52.2444 25.894 55.7425 25.894C56.4502 25.894 58.5126 25.9747 59.6652 27.8668H62.9813C61.8692 24.9479 59.18 23.2168 55.7425 23.2168C50.5053 23.2168 47.7958 27.444 47.7958 31.0271C47.7958 34.6102 50.3436 38.7368 55.7829 38.7368C61.5053 38.7368 63.6891 34.3284 63.7295 30.7855H53.9833ZM65.5494 38.3745H73.5769V35.6972H68.3195V32.2752H73.3544V29.598H68.3195V26.1557H73.5769V23.4785H65.5494V38.3745ZM76.0638 38.3745H78.8338V28.3096L85.5067 38.3745H88.2774V23.4785H85.5067V33.5434L78.8338 23.4785H76.0638V38.3745ZM105.02 27.7459C103.766 24.8876 101.177 23.2168 98.084 23.2168C92.7861 23.2168 90.2588 27.6051 90.2588 30.9265C90.2588 34.3485 92.8062 38.7368 98.0437 38.7368C101.299 38.7368 103.705 36.9453 104.938 34.3284H101.723C100.794 35.5362 99.4589 36.0595 98.1244 36.0595C95.2528 36.0595 93.0288 33.7245 93.0288 30.9265C93.0288 28.3096 95.1117 25.894 98.1042 25.894C99.8839 25.894 101.117 26.8 101.865 27.7459H105.02ZM110.318 38.3745H113.088V32.879L118.001 23.4785H114.968L111.713 30.3427L108.437 23.4785H105.404L110.318 32.879V38.3745Z" fill="#B18BB1"/>
<path fill-rule="evenodd" clip-rule="evenodd" d="M21.845 31.0314C21.845 36.9561 17.0204 41.759 11.069 41.759C5.11756 41.759 0.292969 36.9561 0.292969 31.0314C0.292969 25.1066 5.11756 20.3037 11.069 20.3037C17.0204 20.3037 21.845 25.1066 21.845 31.0314ZM17.5628 26.6183C17.5628 28.4869 16.0412 30.0017 14.1642 30.0017C12.2871 30.0017 10.7656 28.4869 10.7656 26.6183C10.7656 24.7497 12.2871 23.235 14.1642 23.235C16.0412 23.235 17.5628 24.7497 17.5628 26.6183Z" fill="#B18BB1"/>
</g>
</svg>
