<svg width="6" height="248" viewBox="0 0 6 248" fill="none" xmlns="http://www.w3.org/2000/svg">
<circle cx="3" cy="3" r="3" fill="#010101"/>
<circle cx="3" cy="14" r="3" fill="#010101"/>
<circle cx="3" cy="25" r="3" fill="#010101"/>
<circle cx="3" cy="36" r="3" fill="#010101"/>
<circle cx="3" cy="47" r="3" fill="#010101"/>
<circle cx="3" cy="58" r="3" fill="#010101"/>
<circle cx="3" cy="69" r="3" fill="#010101"/>
<circle cx="3" cy="80" r="3" fill="#010101"/>
<circle cx="3" cy="91" r="3" fill="#010101"/>
<circle cx="3" cy="102" r="3" fill="#010101"/>
<circle cx="3" cy="113" r="3" fill="#010101"/>
<circle cx="3" cy="124" r="3" fill="#010101"/>
<circle cx="3" cy="135" r="3" fill="#010101"/>
<circle cx="3" cy="146" r="3" fill="#010101"/>
<circle cx="3" cy="157" r="3" fill="#010101"/>
<circle cx="3" cy="168" r="3" fill="#010101"/>
<circle cx="3" cy="179" r="3" fill="#010101"/>
<circle cx="3" cy="190" r="3" fill="#010101"/>
<circle cx="3" cy="201" r="3" fill="#010101"/>
<circle cx="3" cy="212" r="3" fill="#010101"/>
<circle cx="3" cy="223" r="3" fill="#010101"/>
<circle cx="3" cy="234" r="3" fill="#010101"/>
<circle cx="3" cy="245" r="3" fill="#010101"/>
</svg>
