<svg width="296" height="6" viewBox="0 0 296 6" fill="none" xmlns="http://www.w3.org/2000/svg">
<circle cx="3" cy="3" r="3" transform="rotate(-90 3 3)" fill="#010101"/>
<circle cx="14.1539" cy="3" r="3" transform="rotate(-90 14.1539 3)" fill="#010101"/>
<circle cx="25.3077" cy="3" r="3" transform="rotate(-90 25.3077 3)" fill="#010101"/>
<circle cx="36.4615" cy="3" r="3" transform="rotate(-90 36.4615 3)" fill="#010101"/>
<circle cx="47.6154" cy="3" r="3" transform="rotate(-90 47.6154 3)" fill="#010101"/>
<circle cx="58.7692" cy="3" r="3" transform="rotate(-90 58.7692 3)" fill="#010101"/>
<circle cx="69.9231" cy="3" r="3" transform="rotate(-90 69.9231 3)" fill="#010101"/>
<circle cx="81.0769" cy="3" r="3" transform="rotate(-90 81.0769 3)" fill="#010101"/>
<circle cx="92.2308" cy="3" r="3" transform="rotate(-90 92.2308 3)" fill="#010101"/>
<circle cx="103.385" cy="3" r="3" transform="rotate(-90 103.385 3)" fill="#010101"/>
<circle cx="114.538" cy="3" r="3" transform="rotate(-90 114.538 3)" fill="#010101"/>
<circle cx="125.692" cy="3" r="3" transform="rotate(-90 125.692 3)" fill="#010101"/>
<circle cx="136.846" cy="3" r="3" transform="rotate(-90 136.846 3)" fill="#010101"/>
<circle cx="148" cy="3" r="3" transform="rotate(-90 148 3)" fill="#010101"/>
<circle cx="159.154" cy="3" r="3" transform="rotate(-90 159.154 3)" fill="#010101"/>
<circle cx="170.308" cy="3" r="3" transform="rotate(-90 170.308 3)" fill="#010101"/>
<circle cx="181.462" cy="3" r="3" transform="rotate(-90 181.462 3)" fill="#010101"/>
<circle cx="192.615" cy="3" r="3" transform="rotate(-90 192.615 3)" fill="#010101"/>
<circle cx="203.769" cy="3" r="3" transform="rotate(-90 203.769 3)" fill="#010101"/>
<circle cx="214.923" cy="3" r="3" transform="rotate(-90 214.923 3)" fill="#010101"/>
<circle cx="226.077" cy="3" r="3" transform="rotate(-90 226.077 3)" fill="#010101"/>
<circle cx="237.231" cy="3" r="3" transform="rotate(-90 237.231 3)" fill="#010101"/>
<circle cx="248.385" cy="3" r="3" transform="rotate(-90 248.385 3)" fill="#010101"/>
<circle cx="259.538" cy="3" r="3" transform="rotate(-90 259.538 3)" fill="#010101"/>
<circle cx="270.692" cy="3" r="3" transform="rotate(-90 270.692 3)" fill="#010101"/>
<circle cx="281.846" cy="3" r="3" transform="rotate(-90 281.846 3)" fill="#010101"/>
<circle cx="293" cy="3" r="3" transform="rotate(-90 293 3)" fill="#010101"/>
</svg>
