<svg width="68" height="59" viewBox="0 0 68 59" fill="none" xmlns="http://www.w3.org/2000/svg">
<g clip-path="url(#clip0_2001_886)">
<path d="M7.564 22.6802C9.0623 16.9783 12.3955 11.9349 17.0438 8.33647C21.6922 4.73799 27.3945 2.78663 33.2617 2.78663C39.1288 2.78663 44.8311 4.73799 49.4795 8.33647C54.1278 11.9349 57.461 16.9783 58.9593 22.6802H61.8096C60.2865 16.2194 56.6391 10.4643 51.4577 6.34599C46.2762 2.22772 39.8639 -0.0126953 33.2583 -0.0126953C26.6527 -0.0126953 20.2404 2.22772 15.0589 6.34599C9.87748 10.4643 6.23011 16.2194 4.70703 22.6802H7.564Z" fill="#12311D"/>
<path d="M58.9593 36.3198C57.461 42.0217 54.1278 47.0651 49.4795 50.6636C44.8311 54.262 39.1288 56.2134 33.2617 56.2134C27.3945 56.2134 21.6922 54.262 17.0438 50.6636C12.3955 47.0651 9.0623 42.0217 7.564 36.3198H4.70703C6.23272 42.7774 9.88077 48.5289 15.0613 52.6443C20.2418 56.7598 26.6518 58.9985 33.2549 58.9985C39.858 58.9985 46.2681 56.7598 51.4486 52.6443C56.6291 48.5289 60.2772 42.7774 61.8029 36.3198H58.9593Z" fill="#12311D"/>
<path d="M12.502 36.3198C13.9338 40.7192 16.7124 44.551 20.4407 47.268C24.1689 49.9849 28.6562 51.4479 33.2612 51.4479C37.8662 51.4479 42.3534 49.9849 46.0817 47.268C49.81 44.551 52.5885 40.7192 54.0204 36.3198H12.502Z" fill="#ED1C24"/>
<path d="M54.0209 22.6802C52.5987 18.2721 49.824 14.4299 46.0949 11.7049C42.3658 8.97996 37.8738 7.51221 33.2634 7.51221C28.653 7.51221 24.161 8.97996 20.4319 11.7049C16.7028 14.4299 13.9281 18.2721 12.5059 22.6802H54.0209Z" fill="#ED1C24"/>
<path d="M0.00683594 23.8309C1.09643 23.6621 2.19782 23.5819 3.30024 23.5913C5.41528 23.5913 6.87566 24.03 7.91639 24.9107C8.95712 25.7915 9.67892 27.1548 9.67892 29.0951C9.67892 31.1199 9.00748 32.6384 7.91639 33.617C6.79173 34.6462 4.99563 35.1693 2.79667 35.1693C1.8647 35.18 0.932975 35.1326 0.00683594 35.0275V23.8309ZM2.07487 33.4651C2.45358 33.5104 2.83511 33.5274 3.21631 33.5158C5.90207 33.5158 7.49674 32.0478 7.49674 29.1626C7.51353 26.6486 6.06993 25.2145 3.48489 25.2145C3.01203 25.203 2.53931 25.2426 2.07487 25.3326V33.4651Z" fill="#12311D"/>
<path d="M11.4648 23.8307C12.4973 23.6655 13.5416 23.5854 14.587 23.5911C16.2186 23.5911 17.3265 23.8611 18.0819 24.5056C18.4031 24.7881 18.6573 25.1393 18.8258 25.5335C18.9943 25.9276 19.0728 26.3547 19.0555 26.7834C19.0492 27.4123 18.8488 28.0238 18.482 28.5334C18.1151 29.043 17.6 29.4255 17.0076 29.6281V29.6787C17.8133 29.9824 18.3001 30.7754 18.5855 31.8722C18.9212 33.2895 19.2569 34.6055 19.4751 35.0442H17.3433C17.0146 34.1737 16.7619 33.276 16.5879 32.3615C16.2522 30.8767 15.7318 30.4042 14.5736 30.3705H13.5127V35.0442H11.4648V23.8307ZM13.5127 28.8587H14.7415C16.1347 28.8587 17.0076 28.1163 17.0076 26.9859C17.0076 25.7373 16.1347 25.1636 14.7918 25.1636C14.3631 25.151 13.9342 25.1849 13.5127 25.2649V28.8587Z" fill="#12311D"/>
<path d="M20.6808 33.9037C20.6686 33.729 20.6928 33.5537 20.7517 33.3889C20.8106 33.2242 20.903 33.0735 21.023 32.9465C21.143 32.8196 21.288 32.7191 21.4487 32.6515C21.6094 32.5839 21.7823 32.5507 21.9565 32.5539C22.272 32.6045 22.5592 32.7665 22.7665 33.0108C22.9738 33.2551 23.0877 33.5657 23.0877 33.8869C23.0877 34.208 22.9738 34.5186 22.7665 34.7629C22.5592 35.0072 22.272 35.1692 21.9565 35.2198C21.7853 35.2227 21.6154 35.1904 21.457 35.1249C21.2987 35.0593 21.1554 34.9619 21.0359 34.8387C20.9164 34.7154 20.8233 34.5689 20.7622 34.4081C20.7012 34.2473 20.6734 34.0757 20.6808 33.9037Z" fill="#12311D"/>
<path d="M34.5323 30.4111C34.4652 28.9432 34.3813 27.1715 34.398 25.6361H34.3477C33.9784 27.0197 33.5084 28.5551 33.0048 29.9893L31.3564 34.916H29.7617L28.251 30.0567C27.8146 28.6057 27.4117 27.0534 27.1096 25.6361H27.076C27.0256 27.1209 26.9585 28.9263 26.8746 30.4786L26.6228 35.051H24.6924L25.4478 23.6755H28.1671L29.6442 28.2514C30.0471 29.6012 30.3996 30.951 30.685 32.1996H30.7353C31.0375 30.9679 31.4068 29.5674 31.86 28.2345L33.4244 23.6755H36.1102L36.7649 35.051H34.7505L34.5323 30.4111Z" fill="#12311D"/>
<path d="M41.428 35.0512V30.3032L37.8525 23.6757H40.2026L41.5622 26.5913C41.9483 27.4349 42.2337 28.0761 42.5358 28.8522H42.5694C42.8548 28.1267 43.1737 27.418 43.5598 26.5913L44.9194 23.6689H47.2527L43.4926 30.2526V35.0444L41.428 35.0512Z" fill="#12311D"/>
<path d="M48.293 23.8308C49.2854 23.6611 50.291 23.5809 51.2977 23.5912C52.8285 23.5912 53.7686 23.7768 54.5373 24.3201C54.9048 24.5364 55.2078 24.8476 55.4151 25.2215C55.6223 25.5954 55.7261 26.0182 55.7157 26.4461C55.7157 27.4922 55.0611 28.4708 53.8357 28.9095V28.9533C55.0275 29.257 56.1186 30.2019 56.1186 31.771C56.1287 32.2225 56.0357 32.6702 55.8465 33.0797C55.6573 33.4893 55.3771 33.8497 55.0275 34.1332C54.2218 34.8418 52.8957 35.1962 50.831 35.1962C49.9826 35.1996 49.1349 35.1489 48.293 35.0443V23.8308ZM50.3409 28.3189H51.4017C52.8285 28.3189 53.6343 27.644 53.6343 26.6823C53.6343 25.6159 52.8285 25.13 51.5159 25.13C51.1223 25.1168 50.7285 25.1451 50.3409 25.2144V28.3189ZM50.3409 33.5494C50.7032 33.5882 51.0676 33.6051 51.4319 33.6C52.7748 33.6 53.9364 33.0938 53.9364 31.6934C53.9364 30.3774 52.7916 29.8374 51.3648 29.8374H50.3576L50.3409 33.5494Z" fill="#12311D"/>
<path d="M68.0029 29.247C68.0029 33.0602 65.6999 35.2367 62.5777 35.2367C59.3883 35.2367 57.374 32.7902 57.374 29.4494C57.374 25.9568 59.5562 23.4934 62.7455 23.4934C66.0524 23.4934 68.0029 26.0074 68.0029 29.247ZM59.5562 29.4157C59.5562 31.7272 60.7144 33.5663 62.6952 33.5663C64.6759 33.5663 65.8174 31.7104 65.8174 29.3313C65.8174 27.1885 64.7632 25.1638 62.6952 25.1638C60.6271 25.1638 59.5562 27.0704 59.5562 29.4157Z" fill="#12311D"/>
</g>
<defs>
<clipPath id="clip0_2001_886">
<rect width="68" height="59" fill="white"/>
</clipPath>
</defs>
</svg>
