<svg width="38" height="332" viewBox="0 0 38 332" fill="none" xmlns="http://www.w3.org/2000/svg">
<mask id="path-1-inside-1_240_1020" fill="white">
<path d="M0 332L-1.45122e-05 0L26 -1.1365e-06C32.6274 -1.42619e-06 38 5.37259 38 12L38 320C38 326.627 32.6274 332 26 332L0 332Z"/>
</mask>
<path d="M0 332L-1.45122e-05 0L26 -1.1365e-06C32.6274 -1.42619e-06 38 5.37259 38 12L38 320C38 326.627 32.6274 332 26 332L0 332Z" fill="#101010"/>
<path d="M-2 332L-2.00001 8.74228e-08L1.99999 -8.74228e-08L2 332L-2 332ZM38 -1.66103e-06L38 332L38 -1.66103e-06ZM38 332L0 332L38 332ZM-1.45122e-05 0L38 -1.66103e-06L-1.45122e-05 0Z" fill="white" fill-opacity="0.04" mask="url(#path-1-inside-1_240_1020)"/>
<path d="M24 294.9L9.9 294.9L9.9 289.46C9.9 287.3 10.1467 285.767 10.64 284.86C11.12 283.94 12.0267 283.48 13.36 283.48C13.7067 283.48 14.02 283.513 14.3 283.58C14.58 283.647 14.8133 283.727 15 283.82C15.1733 283.913 15.3267 284.053 15.46 284.24C15.5933 284.413 15.7 284.573 15.78 284.72C15.8467 284.853 15.9067 285.04 15.96 285.28C16 285.52 16.0267 285.713 16.04 285.86C16.0533 286.007 16.0667 286.22 16.08 286.5C16.0933 286.767 16.1067 286.96 16.12 287.08L17.04 287.08C17.1067 285.72 17.2067 284.813 17.34 284.36C17.7267 283.08 18.7 282.44 20.26 282.44C20.9133 282.44 21.4733 282.573 21.94 282.84C22.3933 283.093 22.7533 283.42 23.02 283.82C23.2867 284.22 23.4933 284.747 23.64 285.4C23.7867 286.04 23.8867 286.667 23.94 287.28C23.98 287.893 24 288.627 24 289.48L24 294.9ZM14.98 291.08L14.98 288.92C14.98 288.853 14.98 288.747 14.98 288.6C14.98 288.453 14.98 288.353 14.98 288.3C14.98 288.233 14.98 288.14 14.98 288.02C14.9667 287.9 14.9533 287.82 14.94 287.78C14.9133 287.727 14.88 287.66 14.84 287.58C14.7867 287.5 14.7333 287.447 14.68 287.42C14.6133 287.393 14.5333 287.367 14.44 287.34C14.3467 287.313 14.24 287.3 14.12 287.3C13.64 287.3 13.36 287.54 13.28 288.02C13.2667 288.153 13.26 288.453 13.26 288.92L13.26 291.08L14.98 291.08ZM20.64 291.08L20.64 288.94C20.64 288.82 20.64 288.66 20.64 288.46C20.64 288.247 20.64 288.093 20.64 288C20.64 287.907 20.64 287.78 20.64 287.62C20.64 287.46 20.6333 287.34 20.62 287.26C20.6067 287.18 20.5867 287.08 20.56 286.96C20.5333 286.84 20.5 286.753 20.46 286.7C20.42 286.647 20.3733 286.587 20.32 286.52C20.2667 286.453 20.2 286.407 20.12 286.38C20.04 286.34 19.9533 286.313 19.86 286.3C19.7533 286.273 19.6333 286.26 19.5 286.26C19.3267 286.26 19.18 286.28 19.06 286.32C18.9267 286.347 18.82 286.387 18.74 286.44C18.6467 286.48 18.5733 286.56 18.52 286.68C18.4667 286.787 18.4267 286.88 18.4 286.96C18.3733 287.04 18.3533 287.173 18.34 287.36C18.3267 287.533 18.32 287.68 18.32 287.8C18.32 287.907 18.3267 288.087 18.34 288.34C18.34 288.593 18.34 288.793 18.34 288.94L18.34 291.08L20.64 291.08ZM24 281.111L9.9 281.111L9.9 270.531L13.26 270.531L13.26 277.291L15.26 277.291L15.26 271.531L18.62 271.531L18.62 277.291L20.64 277.291L20.64 270.531L24 270.531L24 281.111ZM9.9 255.828L24 255.828L24 259.668L13.26 259.668L13.26 262.808C14.22 262.821 15.0733 262.855 15.82 262.908C16.5533 262.961 17.3133 263.055 18.1 263.188C18.8733 263.321 19.54 263.495 20.1 263.708C20.66 263.908 21.2 264.181 21.72 264.528C22.2267 264.861 22.64 265.255 22.96 265.708C23.28 266.161 23.5333 266.715 23.72 267.368C23.9067 268.008 24 268.728 24 269.528L20.64 269.528C20.64 269.061 20.5467 268.661 20.36 268.328C20.16 267.981 19.8067 267.708 19.3 267.508C18.78 267.295 18.2867 267.128 17.82 267.008C17.34 266.875 16.6 266.788 15.6 266.748C14.5867 266.695 13.7333 266.661 13.04 266.648C12.3467 266.635 11.3 266.628 9.9 266.628L9.9 255.828ZM24 239.439L24 243.279L13.16 243.279L10.84 242.539L10.84 243.479L24 246.619L24 254.119L9.9 254.119L9.9 250.299L20.74 250.299L23.06 251.039L23.06 250.099L9.9 246.959L9.9 239.439L24 239.439ZM24 228.684L19 232.364C19.2933 232.684 19.5133 233.037 19.66 233.424L24 233.424L24 237.244L9.9 237.244L9.9 233.424L14.8 233.424L10.94 229.924C10.2467 229.284 9.9 228.504 9.9 227.584L9.9 224.684L13.26 224.684L13.26 227.104L16.28 229.884L24 224.144L24 228.684ZM24 211.811L19.88 212.891L19.88 218.611L24 219.691L24 223.571L9.9 219.711L9.9 211.811L24 207.931L24 211.811ZM16.52 217.731L16.52 213.791L10.84 215.291L10.84 216.231L16.52 217.731ZM9.89999 196.336L9.89999 192.496L24 192.496L24 196.336L18.86 196.336L18.86 202.916L24 202.916L24 206.736L9.9 206.736L9.9 202.916L15.5 202.916L15.5 196.336L9.89999 196.336ZM9.89999 186.959L14.24 186.959L14.24 185.419C14.24 184.646 14.2667 183.986 14.32 183.439C14.3733 182.879 14.5 182.292 14.7 181.679C14.8867 181.052 15.1533 180.546 15.5 180.159C15.8333 179.772 16.3067 179.452 16.92 179.199C17.5333 178.946 18.2667 178.819 19.12 178.819C19.9733 178.819 20.7133 178.946 21.34 179.199C21.9533 179.452 22.4267 179.772 22.76 180.159C23.0933 180.546 23.36 181.052 23.56 181.679C23.7467 182.292 23.8667 182.879 23.92 183.439C23.9733 183.986 24 184.646 24 185.419L24 190.779L9.89999 190.779L9.89999 186.959ZM9.89999 177.119L9.89999 173.279L24 173.279L24 177.119L9.89999 177.119ZM20.64 186.959L20.64 185.419C20.64 184.246 20.56 183.492 20.4 183.159C20.2267 182.812 19.8 182.639 19.12 182.639C18.44 182.639 18.02 182.812 17.86 183.159C17.6867 183.492 17.6 184.246 17.6 185.419L17.6 186.959L20.64 186.959ZM20.64 152.736L20.64 151.416L26.86 151.416L26.86 155.236L24 155.236L24 162.896L26.86 162.896L26.86 166.716L20.64 166.716L20.64 165.396C20.1067 164.729 18.9067 164.196 17.04 163.796C15.16 163.396 12.78 163.196 9.89999 163.196L9.89999 152.736L20.64 152.736ZM20.64 161.576L20.64 156.556L13.26 156.556L13.26 159.476C15.22 159.609 16.84 159.862 18.12 160.236C19.3867 160.609 20.2267 161.056 20.64 161.576ZM24 139.057L19.88 140.137L19.88 145.857L24 146.937L24 150.817L9.89999 146.957L9.89999 139.057L24 135.177L24 139.057ZM16.52 144.977L16.52 141.037L10.84 142.537L10.84 143.477L16.52 144.977ZM24 133.982L9.89999 133.982L9.89999 123.462L13.26 123.462L13.26 130.162L24 130.162L24 133.982ZM24 122.263L9.89999 122.263L9.89999 111.683L13.26 111.683L13.26 118.443L15.26 118.443L15.26 112.683L18.62 112.683L18.62 118.443L20.64 118.443L20.64 111.683L24 111.683L24 122.263ZM16.94 111.077C14.8467 111.077 13.12 110.397 11.76 109.037C10.3867 107.663 9.69999 105.843 9.69999 103.577C9.69999 101.55 10.2067 99.9032 11.22 98.6366C12.22 97.3566 13.5933 96.6099 15.34 96.3966L15.34 100.217C14.6067 100.377 14.0467 100.763 13.66 101.377C13.26 101.977 13.06 102.697 13.06 103.537C13.06 104.67 13.3867 105.577 14.04 106.257C14.68 106.923 15.6467 107.257 16.94 107.257C18.2467 107.257 19.2267 106.923 19.88 106.257C20.52 105.577 20.84 104.67 20.84 103.537C20.84 102.697 20.64 101.977 20.24 101.377C19.84 100.763 19.2733 100.377 18.54 100.217L18.54 96.3966C20.3 96.6099 21.6867 97.3566 22.7 98.6366C23.7 99.9032 24.2 101.55 24.2 103.577C24.2 105.843 23.52 107.663 22.16 109.037C20.7867 110.397 19.0467 111.077 16.94 111.077ZM9.89999 83.3636L13.26 83.3636L13.26 87.8636L24 87.8636L24 91.6836L13.26 91.6836L13.26 96.1836L9.89999 96.1836L9.89999 83.3636ZM24 73.1587L19.88 74.2387L19.88 79.9587L24 81.0387L24 84.9187L9.89999 81.0587L9.89999 73.1587L24 69.2787L24 73.1587ZM16.52 79.0787L16.52 75.1387L10.84 76.6387L10.84 77.5787L16.52 79.0787ZM9.89999 57.6836L9.89999 53.8436L24 53.8436L24 57.6836L18.86 57.6836L18.86 64.2636L24 64.2636L24 68.0836L9.89999 68.0836L9.89999 64.2636L15.5 64.2636L15.5 57.6836L9.89999 57.6836ZM24 40.8931L19.88 41.9731L19.88 47.6931L24 48.7731L24 52.6531L9.89999 48.7931L9.89999 40.8931L24 37.0131L24 40.8931ZM16.52 46.8131L16.52 42.8731L10.84 44.3731L10.84 45.3131L16.52 46.8131Z" fill="white" fill-opacity="0.04"/>
</svg>
